<?xml version="1.0" encoding="utf-8"?>
<!-- Generator: Adobe Illustrator 25.0.1, SVG Export Plug-In . SVG Version: 6.00 Build 0)  -->
<svg version="1.1" id="katman_1" xmlns="http://www.w3.org/2000/svg" xmlns:xlink="http://www.w3.org/1999/xlink" x="0px" y="0px"
	 viewBox="0 0 500 500" style="enable-background:new 0 0 500 500;" xml:space="preserve">
<style type="text/css">
	.st0{clip-path:url(#SVGID_1_);}
	.st1{clip-path:url(#SVGID_1_);fill:#E1001F;}
	.st2{clip-path:url(#SVGID_1_);fill:#F6D928;}
	.st3{fill:#FFFFFF;}
	.st4{fill:url(#SVGID_2_);}
</style>
<g>
	<g>
		<defs>
			<path id="SVGID_3_" d="M2,189.2C184.4,80.6,403.8,137.9,492,300l0,0c-121.3-47.4-241.5,9.9-268.5,110.7
				C149.7,336.9,75.8,263.1,2,189.2z"/>
		</defs>
		<clipPath id="SVGID_1_">
			<use xlink:href="#SVGID_3_"  style="overflow:visible;"/>
		</clipPath>
		<path class="st0" d="M75.8,263.1C206.5,157,392.8,176.1,492,300l0,0C403.8,137.9,184.4,80.6,2,189.2
			C26.6,213.8,51.2,238.4,75.8,263.1z"/>
		<path class="st1" d="M149.7,336.9C228.5,233.4,381.8,214.3,492,300l0,0C392.8,176.1,206.5,157,75.8,263.1
			C100.4,287.7,125.1,312.3,149.7,336.9z"/>
		<path class="st2" d="M223.5,410.7C250.5,309.9,370.7,252.5,492,300l0,0c-110.2-85.6-263.5-66.5-342.3,36.9
			C174.3,361.5,198.9,386.1,223.5,410.7z"/>
	</g>
</g>
<g>
	<path class="st3" d="M425.7,351.5c-0.2-0.6-0.9-0.9-1.6-0.9s-1.4,0.3-1.6,0.9l-3.8,12.3c0,0.1,0,0.2,0,0.2c0,0.6,0.9,1,1.6,1
		c0.4,0,0.8-0.1,0.9-0.5l0.7-2.6h4.5l0.7,2.6c0.1,0.4,0.4,0.5,0.9,0.5c0.7,0,1.6-0.5,1.6-1c0-0.1,0-0.1,0-0.2L425.7,351.5z
		 M422.4,360l1.7-6l1.7,6H422.4z"/>
	<path class="st3" d="M435.8,339h-18.3v-7.9l6-4.3c0.5-0.3,0.8-0.9,0.8-1.5s-0.3-1.1-0.8-1.5l-6-4.3c-0.5-3.2-3.2-5.6-6.5-5.6h-23.7
		c-3.7,0-6.7,3-6.7,6.7v23.6c0,3.7,3,6.7,6.7,6.7h18.3v7.5l-6.1,4.4c-0.5,0.3-0.8,0.9-0.8,1.5s0.3,1.1,0.8,1.5l6.2,4.4
		c0.5,3.2,3.3,5.7,6.7,5.7H436c3.7,0,6.7-3,6.7-6.7v-23.6C442.5,342,439.5,339,435.8,339z M386.5,347c-1.7,0-3.1-1.4-3.1-3.1V320
		c0-1.7,1.4-3.1,3.1-3.1h23.8c1.7,0,3.1,1.4,3.1,3.1c0,0.6,0.2,1.1,0.7,1.4l4.9,3.5l-4.8,3.5c-0.5,0.3-0.8,0.9-0.8,1.5v9h-1.3
		c-3.7,0-6.7,3-6.7,6.7v1.3L386.5,347L386.5,347z M439.5,369.9c0,1.7-1.4,3.1-3.1,3.1h-23.8c-1.7,0-3.1-1.4-3.1-3.1
		c0-0.6-0.2-1.1-0.7-1.4l-4.9-3.5l4.8-3.5c0.5-0.3,0.8-0.9,0.8-1.5v-14c0-1.7,1.4-3.1,3.1-3.1h3l0,0l0,0h20.9c1.7,0,3.1,1.4,3.1,3.1
		L439.5,369.9L439.5,369.9z"/>
	<path class="st3" d="M403.9,331c0.5,0,1-0.5,1-1s-0.5-1-1-1h-4.5v-2.4c0-0.5-0.5-1-1-1s-1,0.5-1,1v2.4H393c-0.5,0-1,0.5-1,1
		s0.5,1,1,1h1.4c0.2,2.1,1.1,4,2.5,5.5c-1.1,0.7-2.5,1.1-3.9,1.1c-0.5,0-1,0.5-1,1s0.5,1,1,1c2,0,3.9-0.6,5.5-1.7
		c1.5,1.1,3.4,1.7,5.5,1.7c0.5,0,1-0.5,1-1s-0.5-1-1-1c-1.4,0-2.7-0.4-3.9-1.1c1.4-1.5,2.3-3.4,2.5-5.5H403.9z M398.7,335.3
		c-1.1-1.2-1.9-2.7-2.1-4.4h4.2C400.6,332.6,399.8,334.2,398.7,335.3z"/>
</g>
<linearGradient id="SVGID_2_" gradientUnits="userSpaceOnUse" x1="346" y1="-413.5" x2="492" y2="-413.5" gradientTransform="matrix(1 0 0 -1 0 -76)">
	<stop  offset="0" style="stop-color:#E7762E"/>
	<stop  offset="1" style="stop-color:#E7572E"/>
</linearGradient>
<circle class="st4" cx="419" cy="337.5" r="73"/>
<g>
	<path class="st3" d="M437.8,345.8c-0.2-0.8-1.2-1.1-2.2-1.1s-1.9,0.4-2.1,1.1l-5,16.1c0,0.1,0,0.2,0,0.3c0,0.8,1.2,1.4,2.1,1.4
		c0.6,0,1-0.2,1.1-0.7l1-3.4h5.9l1,3.4c0.1,0.5,0.6,0.7,1.1,0.7c0.9,0,2.1-0.6,2.1-1.4c0-0.1,0-0.1,0-0.3L437.8,345.8z M433.4,356.9
		l2.2-7.9l2.2,7.9H433.4z"/>
	<path class="st3" d="M451,329.9h-24.5v-10.5l8-5.7c0.6-0.5,1-1.2,1-2s-0.4-1.5-1-2l-8.1-5.8c-0.6-4.2-4.3-7.5-8.7-7.5h-30.8
		c-4.9,0-8.8,4-8.8,8.8V336c0,4.9,4,8.8,8.8,8.8h24.5v10.5l-8,5.7c-0.6,0.5-1,1.2-1,2s0.4,1.5,1,2l8.1,5.8c0.6,4.2,4.3,7.5,8.7,7.5
		H451c4.9,0,8.8-4,8.8-8.8v-30.8C459.8,333.9,455.9,329.9,451,329.9z M386.9,340.2c-2.2,0-4-1.8-4-4v-30.8c0-2.2,1.8-4,4-4h30.8
		c2.2,0,4,1.8,4,4c0,0.8,0.4,1.5,1,2l6.2,4.5l-6.2,4.5c-0.6,0.5-1,1.2-1,2v11.7h-1.5c-4.9,0-8.8,4-8.8,8.8v1.5L386.9,340.2
		L386.9,340.2z M455,369.5c0,2.2-1.8,4-4,4h-30.8c-2.2,0-4-1.8-4-4c0-0.8-0.4-1.5-1-2L409,363l6.2-4.5c0.6-0.5,1-1.2,1-2v-18
		c0-2.2,1.8-4,4-4h3.8l0,0l0,0h27c2.2,0,4,1.8,4,4V369.5L455,369.5z"/>
	<path class="st3" d="M409.6,318.6c0.8,0,1.4-0.6,1.4-1.4s-0.6-1.4-1.4-1.4h-6v-3.3c0-0.8-0.6-1.4-1.4-1.4s-1.4,0.6-1.4,1.4v3.3h-6
		c-0.8,0-1.4,0.6-1.4,1.4s0.6,1.4,1.4,1.4h1.9c0.3,2.9,1.5,5.4,3.4,7.4c-1.5,0.9-3.3,1.5-5.2,1.5c-0.8,0-1.4,0.6-1.4,1.4
		s0.6,1.4,1.4,1.4c2.7,0,5.3-0.9,7.4-2.3c2.1,1.5,4.6,2.3,7.4,2.3c0.8,0,1.4-0.6,1.4-1.4s-0.6-1.4-1.4-1.4c-1.9,0-3.7-0.5-5.2-1.5
		c1.9-2,3.1-4.6,3.4-7.4H409.6z M402.3,324.4c-1.5-1.5-2.5-3.5-2.8-5.7h5.5C404.8,320.9,403.7,322.9,402.3,324.4z"/>
</g>
</svg>
